<?xml version="1.0" encoding="UTF-8"?>
<svg width="34px" height="34px" viewBox="0 0 34 34" version="1.1" xmlns="http://www.w3.org/2000/svg" xmlns:xlink="http://www.w3.org/1999/xlink">
    <!-- Generator: Sketch 46.2 (44496) - http://www.bohemiancoding.com/sketch -->
    <title>Facebook</title>
    <desc>Created with Sketch.</desc>
    <defs></defs>
    <g id="Symbols" stroke="none" stroke-width="1" fill="none" fill-rule="evenodd">
        <g id="footer" transform="translate(-442.000000, -33.000000)" fill="#FFFFFF">
            <g id="Facebook">
                <path d="M460.160502,67 L443.876539,67 C442.839851,67 442,66.1596273 442,65.1233436 L442,34.8765244 C442,33.8399769 442.839983,33 443.876539,33 L474.123593,33 C475.159885,33 476,33.8399769 476,34.8765244 L476,65.1233436 C476,66.1597593 475.159753,67 474.123593,67 L465.459508,67 L465.459508,53.8333262 L469.878952,53.8333262 L470.540702,48.7020398 L465.459508,48.7020398 L465.459508,45.4260377 C465.459508,43.9404118 465.872046,42.9280069 468.002414,42.9280069 L470.719596,42.9268195 L470.719596,38.3373558 C470.249669,38.2748226 468.636722,38.1351123 466.760183,38.1351123 C462.842591,38.1351123 460.160502,40.5264144 460.160502,44.9178563 L460.160502,48.7020398 L455.729711,48.7020398 L455.729711,53.8333262 L460.160502,53.8333262 L460.160502,67 L460.160502,67 Z"></path>
            </g>
        </g>
    </g>
</svg>