<?xml version="1.0" encoding="UTF-8"?>
<svg width="34px" height="28px" viewBox="0 0 34 28" version="1.1" xmlns="http://www.w3.org/2000/svg" xmlns:xlink="http://www.w3.org/1999/xlink">
    <!-- Generator: Sketch 46.2 (44496) - http://www.bohemiancoding.com/sketch -->
    <title>Twitter-black</title>
    <desc>Created with Sketch.</desc>
    <defs></defs>
    <g id="Symbols" stroke="none" stroke-width="1" fill="none" fill-rule="evenodd">
        <g id="footer" transform="translate(-491.000000, -37.000000)" fill="#FFFFFF">
            <g id="Twitter">
                <path d="M525,40.3146984 C523.750719,40.8769231 522.405647,41.2571325 520.994717,41.4270134 C522.435581,40.5533406 523.541175,39.1680029 524.062041,37.517732 C522.712978,38.3266883 521.222222,38.915204 519.629688,39.230697 C518.360451,37.8574937 516.546399,37 514.538769,37 C510.689147,37 507.565945,40.1650415 507.565945,44.0682557 C507.565945,44.6223908 507.625814,45.1603467 507.745554,45.6780787 C501.948172,45.3828097 496.809356,42.5716865 493.366849,38.2902853 C492.766156,39.3378837 492.422903,40.5533406 492.422903,41.8476706 C492.422903,44.2988082 493.654223,46.4627663 495.526149,47.7308053 C494.384633,47.6964247 493.306979,47.3748646 492.365029,46.849043 L492.365029,46.9360058 C492.365029,50.3619357 494.769795,53.2195739 497.962846,53.8667389 C497.378118,54.0325749 496.76146,54.115493 496.124846,54.115493 C495.675823,54.115493 495.236779,54.0730228 494.811704,53.9901047 C495.699771,56.7971831 498.274168,58.8418202 501.327522,58.8964247 C498.940717,60.7934272 495.931267,61.9239437 492.664378,61.9239437 C492.101602,61.9239437 491.544814,61.8915854 491,61.8268689 C494.087281,63.8290358 497.755297,65 501.692728,65 C514.524799,65 521.539532,54.2307692 521.539532,44.8893463 C521.539532,44.5819429 521.533545,44.2745395 521.521571,43.9732033 C522.884604,42.9761647 524.068028,41.7323944 525,40.3146984"></path>
            </g>
        </g>
    </g>
</svg>