<?xml version="1.0" encoding="UTF-8"?>
<svg width="696px" height="305px" viewBox="0 0 696 305" version="1.1" xmlns="http://www.w3.org/2000/svg" xmlns:xlink="http://www.w3.org/1999/xlink">
    <!-- Generator: Sketch 46.1 (44463) - http://www.bohemiancoding.com/sketch -->
    <title>sunday-suppers</title>
    <desc>Created with Sketch.</desc>
    <defs></defs>
    <g id="logo" stroke="none" stroke-width="1" fill="none" fill-rule="evenodd">
        <g id="sunday-suppers">
            <g id="Group" transform="translate(49.000000, 0.000000)">
                <path d="M134.644464,173.09621 C84.7097376,176.674614 50,188.036987 50,203.306641 C50,212.935289 62.9847368,220.625518 85.3679541,226.232542 C106.68002,231.571241 135.391217,234.613281 166,234.613281 C196.608783,234.613281 225.31998,231.571241 246.632046,226.232542 C269.015263,220.625518 282,212.935289 282,203.306641 C282,193.677992 269.015263,185.987763 246.632046,180.380739 C225.31998,175.04204 196.608783,172 166,172 L166,174 C196.146267,174 224.376464,177.991077 245.174087,183.200907 C264.900559,188.142413 276,197.716073 276,203.306641 C276,208.897208 264.900559,215.470868 245.174087,220.412374 C224.376464,225.622205 196.146267,228.613281 166,228.613281 C135.853733,228.613281 107.623536,225.622205 86.8259134,220.412374 C67.0994414,215.470868 56,208.897208 56,203.306641 C56,198.819074 63.334758,191.4898 77.1387694,186.971001 C91.6093772,182.233989 111.936067,176.738917 135.073334,175.080863 L134.644464,173.09621 Z" id="Oval-3-Copy-2" fill="#F1AD49" fill-rule="nonzero"></path>
                <path d="M151.871095,149.406111 C89.0623522,87.3248382 38.8237888,82.062565 8.23418287,136.543947 C-7.19142085,164.017599 -0.430245032,191.404043 24.214985,216.645363 C48.1309627,241.139792 90.9253932,258.035648 152.676894,280.367232 L155.58618,278.738456 C94.9406276,256.806823 53.164328,234.049576 30.3358984,210.668999 C8.23672118,188.035313 4.14534621,165.243065 17.627981,141.229922 C44.8548522,92.737713 87.127753,90.7639503 146.457084,149.406111 L151.871095,149.406111 Z" id="Path-3-Copy-5" fill="#347337" fill-rule="nonzero"></path>
                <path d="M181.875626,146.883926 C243.957683,84.8858246 296.619346,82.2768679 326.855036,136.68526 C342.102168,164.122106 333.211344,191.292759 308.851255,216.500263 C285.211981,240.961877 242.912674,257.835097 181.875626,280.136763 L179,278.510169 C238.943895,256.607918 280.23685,233.881159 302.801159,210.531906 C324.644653,187.928542 328.688692,165.166829 315.362048,141.185857 C288.450187,92.7586132 247.25916,88.3203293 188.616258,146.883926 L181.875626,146.883926 Z" id="Path-3-Copy-6" fill="#347337" fill-rule="nonzero"></path>
                <path d="M87.8555458,171.141722 C110.775,130.148691 145.526788,111.45188 180.526186,114.280663 C215.814614,117.132806 250.132433,137.284542 269.799556,175.236828 L271.640137,172.144088 C250.614551,131.570332 219.811765,108.426523 181.251235,105.309916 C142.401675,102.169949 110.512838,122.906731 86,166.749638 L87.8555458,171.141722 Z" id="Path-4-Copy-3" fill="#F1AD49" fill-rule="nonzero"></path>
                <path d="M61.79109,96.9471895 C79.4784202,96.9471895 90.9334369,81.059159 90.9334369,61.0067928 C90.9334369,47.7414949 84.7029199,35.6812121 74.7665102,29.2414103 C70.0345217,26.1746015 64.6727724,24.5336483 59.1027677,24.5336483 C41.4154374,24.5336483 27.2720984,40.9544267 27.2720984,61.0067928 C27.2720984,69.9681605 30.0337333,77.7638578 34.6853214,83.9395403 C38.3056231,88.7460351 43.0088204,92.2940458 46.1553688,92.8002516 L46.4157939,89.4359655 C46.0168432,89.3717837 42.4545891,87.300269 41.1929736,86.348528 C39.543633,85.104294 38.0310742,83.4719503 36.5104807,81.4531339 C32.621337,76.2897109 31.0035945,68.313852 31.0035945,60.6940315 C31.0035945,43.7729831 44.94462,30.5336483 59.1027677,30.5336483 C63.4943425,30.5336483 67.7271088,31.8290785 71.503303,34.2764355 C79.6917254,39.5833641 84.9334369,49.7296366 84.9334369,61.0067928 C84.9334369,77.9278412 78.4560214,93.8074018 64.2978738,93.8074018 L61.79109,96.9471895 Z" id="Oval-Copy-3" fill="#347337" fill-rule="nonzero" transform="translate(59.102768, 60.740419) rotate(189.000000) translate(-59.102768, -60.740419) "></path>
                <path d="M287.332695,98.0385812 C305.020025,98.0385812 316.475042,82.1505507 316.475042,62.0981845 C316.475042,48.8328866 310.244525,36.7726038 300.308115,30.332802 C295.576127,27.2659933 290.214378,25.62504 284.644373,25.62504 C266.957043,25.62504 252.813704,42.0458184 252.813704,62.0981845 C252.813704,71.0595522 255.575339,78.8552496 260.226927,85.030932 C263.847228,89.8374268 268.550426,93.3854375 271.696974,93.8916433 L271.957399,90.5273572 C271.558448,90.4631754 267.996194,88.3916607 266.734579,87.4399198 C265.085238,86.1956858 263.572679,84.5633421 262.052086,82.5445256 C258.162942,77.3811026 256.5452,69.4052437 256.5452,61.7854232 C256.5452,44.8643749 270.486225,31.62504 284.644373,31.62504 C289.035948,31.62504 293.268714,32.9204702 297.044908,35.3678272 C305.233331,40.6747559 310.475042,50.8210284 310.475042,62.0981845 C310.475042,79.0192329 303.997627,94.8987935 289.839479,94.8987935 L287.332695,98.0385812 Z" id="Oval-Copy-4" fill="#347337" fill-rule="nonzero" transform="translate(284.644373, 61.831811) scale(-1, 1) rotate(166.000000) translate(-284.644373, -61.831811) "></path>
                <path d="M179.146484,30 C162.879008,30 144,43.0330073 144,62.5366211 C144,82.0402349 156.951945,98.0366211 173.219421,98.0366211 C189.486898,98.0366211 202.438843,82.0402349 202.438843,62.5366211 C202.438843,50.045633 191.305148,40.0338554 182.658203,33.6186523 L181.375,34.9208984 C188.706284,40.3600075 197.438843,51.5792908 197.438843,62.5366211 C197.438843,79.4838008 186.465403,93.0366211 173.219421,93.0366211 C159.97344,93.0366211 149,79.4838008 149,62.5366211 C149,45.5894414 163.789175,32.2199941 177.035156,32.2199941 L179.146484,30 Z" id="Oval-2-Copy-2" fill="#F1AD49" fill-rule="nonzero"></path>
                <path d="M236.896991,214.722287 C247.855115,211.193523 254,206.861155 254,201.531026 C254,188.875324 215.146934,180 166.5,180 C117.853066,180 79,188.875324 79,201.531026 C79,208.563818 89.9152606,214.072511 108.658265,217.957501 L108.470115,216.040755 C91.7111242,212.567005 83,205.666013 83,201.531026 C83,197.68604 91.5045217,193.092948 106.487763,189.670281 C122.260786,186.067201 143.656166,184 166.5,184 C189.343834,184 210.739214,186.067201 226.512237,189.670281 C241.495478,193.092948 250,197.68604 250,201.531026 C250,204.404369 245.049344,210.894762 235.670905,213.914832 L236.896991,214.722287 Z" id="Oval-4-Copy-2" fill="#F1AD49" fill-rule="nonzero"></path>
                <text id="Sunday-Copy-2" font-family="Amatic-Bold, Amatic" font-size="132" font-style="condensed" font-weight="bold" fill="#347337">
                    <tspan x="366" y="132">Sunday</tspan>
                </text>
                <text id="Suppers-Copy-2" font-family="Amatic-Bold, Amatic" font-size="132" font-style="condensed" font-weight="bold" fill="#347337">
                    <tspan x="373" y="251">Suppers</tspan>
                </text>
            </g>
        </g>
    </g>
</svg>